<?xml version="1.0" encoding="utf-8"?>
<!-- Generator: Adobe Illustrator 21.0.0, SVG Export Plug-In . SVG Version: 6.00 Build 0)  -->
<svg version="1.1" id="Layer_1" xmlns="http://www.w3.org/2000/svg" xmlns:xlink="http://www.w3.org/1999/xlink" x="0px" y="0px"
	 viewBox="0 0 1201.5 191.7" style="enable-background:new 0 0 1201.5 191.7;" xml:space="preserve">
<style type="text/css">
	.st0{fill:#FFFFFF;}
</style>
<path class="st0" d="M161.8,149.4v21.1c0,11.7-9.5,21.1-21.1,21.1H21.1C9.4,191.6,0,182.1,0,170.5v-21.1V72.2V30h42.3h77.3h21.2
	c11.6,0,20.9,9.3,21.1,20.8v16.8L119.5,92V72.2H42.2v77.2h77.3v-14.8h42.3V149.4L161.8,149.4z M570.5,30h-40.6h-77.3h-21.1
	c-11.7,0-21.1,9.5-21.1,21.1v21.1v77.2v21.1c0,11.7,9.5,21.1,21.1,21.1h21.1h44.9l24.4-42.3h-69.3v-77h77.3v119.5h42.3V30H570.5z
	 M629.2,72.3h21.1L674.8,30h-45.6V-0.3h-21.1c-11.7,0-21.1,9.4-21.1,21.1V30l0,0v42.3l0,0v77.2l0,0v21.1c0,11.7,9.5,21.1,21.1,21.1
	h21.1h21v-42.3h-21V72.3z M374.4,30c-11.7,0-21.1,9.5-21.1,21.1v140.6h21.1c11.7,0,21.1-9.5,21.1-21.1V30H374.4z M827,30
	c-11.7,0-21.1,9.5-21.1,21.1v98.3h-77.3V30h-21.1c-11.7,0-21.1,9.5-21.1,21.1v98.3v21.1c0,11.7,9.5,21.1,21.1,21.1h21.1h77.3H819h8
	c11.7,0,21.1-9.5,21.1-21.1V30H827z M1201.6,30.2v140.6c0,11.7-9.5,21.1-21.1,21.1h-21.1H1082h-41.9h-0.4V51.4
	c0-11.7,9.5-21.1,21.1-21.1h21.1h77.3h41h1.4V30.2z M1159.3,72.5H1082v77.2h77.3V72.5z M317.3,30h-21.1h-77.3h-21.1
	c-11.7,0-21.1,9.5-21.1,21.1v21.1v119.5l42.3-24.4v-95h77.3V92l42.3-24.4V51.1C338.4,39.4,329,30,317.3,30z M1003.8,30h-21.1h-77.3
	h-21.1c-11.7,0-21.1,9.5-21.1,21.1v21.1v119.5l42.3-24.4v-95h77.3v24.6l42.3-29.2V51.1C1024.9,39.4,1015.4,30,1003.8,30z"/>
</svg>
